<?xml version="1.0" encoding="utf-8"?><!-- Uploaded to: SVG Repo, www.svgrepo.com, Generator: SVG Repo Mixer Tools -->
<svg width="50px" height="50px" viewBox="0 0 36 36" xmlns="http://www.w3.org/2000/svg" xmlns:xlink="http://www.w3.org/1999/xlink" aria-hidden="true" role="img" class="iconify iconify--twemoji" preserveAspectRatio="xMidYMid meet"><path fill="#67ea9e" d="M36 32a4 4 0 0 1-4 4H4a4 4 0 0 1-4-4V4a4 4 0 0 1 4-4h28a4 4 0 0 1 4 4v28z"></path><path fill="#FFF" d="M25.5 7A2.5 2.5 0 0 0 23 9.5V15H13V9.5a2.5 2.5 0 1 0-5 0v17a2.5 2.5 0 1 0 5 0V20h10v6.5a2.5 2.5 0 1 0 5 0v-17A2.5 2.5 0 0 0 25.5 7z"></path></svg>